<svg aria-hidden="true" xmlns="http://www.w3.org/2000/svg" xmlns:xlink="http://www.w3.org/1999/xlink"><symbol viewBox="0 0 28 21" id="done" xmlns="http://www.w3.org/2000/svg">
<path d="M27.6011 2.19715L26.3045 0.900589C25.7704 0.36647 24.8984 0.36647 24.3596 0.900589L10.764 14.5008L3.64206 7.37888C3.10794 6.8447 2.23593 6.8447 1.69721 7.37888L0.400589 8.67544C-0.13353 9.20962 -0.13353 10.0816 0.400589 10.6203L9.78705 20.0067C10.0564 20.2761 10.4033 20.413 10.7549 20.413C11.1065 20.413 11.458 20.2761 11.7228 20.0067L27.5874 4.14206C28.1352 3.59881 28.1352 2.73139 27.6011 2.19715Z"/>
</symbol><symbol viewBox="0 0 24 24" id="facebook" xmlns="http://www.w3.org/2000/svg">
<path d="M18 2H15C13.6739 2 12.4021 2.52678 11.4645 3.46447C10.5268 4.40215 10 5.67392 10 7V10H7V14H10V22H14V14H17L18 10H14V7C14 6.73478 14.1054 6.48043 14.2929 6.29289C14.4804 6.10536 14.7348 6 15 6H18V2Z" stroke-width="1.5" stroke-linecap="round" stroke-linejoin="round"/>
</symbol><symbol viewBox="0 0 100 16" id="healthtest" xmlns="http://www.w3.org/2000/svg">
<path d="M12.42 0.799999V15H9.68V8.94H3.24V15H0.48V0.799999H3.24V6.54H9.68V0.799999H12.42ZM19.8066 15.2C18.6732 15.2 17.6932 14.9533 16.8666 14.46C16.0532 13.9667 15.4199 13.3133 14.9666 12.5C14.5132 11.6733 14.2866 10.78 14.2866 9.82C14.2866 8.83333 14.5066 7.92667 14.9466 7.1C15.3999 6.26 16.0399 5.59333 16.8666 5.1C17.6932 4.59333 18.6799 4.34 19.8266 4.34C20.9732 4.34 21.9532 4.59333 22.7666 5.1C23.5799 5.59333 24.1999 6.25333 24.6266 7.08C25.0666 7.89333 25.2866 8.77333 25.2866 9.72C25.2866 10.0667 25.2666 10.3667 25.2266 10.62H17.1266C17.1932 11.4333 17.4932 12.0733 18.0266 12.54C18.5732 13.0067 19.1999 13.24 19.9066 13.24C20.4399 13.24 20.9399 13.1133 21.4066 12.86C21.8866 12.5933 22.2132 12.2467 22.3866 11.82L24.6866 12.46C24.2999 13.26 23.6799 13.92 22.8266 14.44C21.9732 14.9467 20.9666 15.2 19.8066 15.2ZM17.0666 8.92H22.5466C22.4666 8.13333 22.1666 7.5 21.6466 7.02C21.1399 6.52667 20.5199 6.28 19.7866 6.28C19.0666 6.28 18.4466 6.52667 17.9266 7.02C17.4199 7.5 17.1332 8.13333 17.0666 8.92ZM26.1992 11.9C26.1992 11.22 26.3859 10.6267 26.7592 10.12C27.1459 9.6 27.6792 9.2 28.3592 8.92C29.0392 8.64 29.8192 8.5 30.6992 8.5C31.1392 8.5 31.5859 8.54 32.0392 8.62C32.4926 8.68667 32.8859 8.78667 33.2192 8.92V8.36C33.2192 7.69333 33.0192 7.18 32.6192 6.82C32.2326 6.46 31.6526 6.28 30.8792 6.28C30.3059 6.28 29.7592 6.38 29.2392 6.58C28.7192 6.78 28.1726 7.07333 27.5992 7.46L26.7392 5.7C27.4326 5.24667 28.1392 4.90667 28.8592 4.68C29.5926 4.45333 30.3592 4.34 31.1592 4.34C32.6526 4.34 33.8126 4.71333 34.6392 5.46C35.4792 6.20667 35.8992 7.27333 35.8992 8.66V12C35.8992 12.2933 35.9459 12.5 36.0392 12.62C36.1326 12.7267 36.2992 12.7933 36.5392 12.82V15C36.2992 15.0533 36.0792 15.0867 35.8792 15.1C35.6926 15.1267 35.5326 15.14 35.3992 15.14C34.8659 15.14 34.4592 15.02 34.1792 14.78C33.8992 14.54 33.7326 14.2467 33.6792 13.9L33.6192 13.36C33.1526 13.96 32.5792 14.42 31.8992 14.74C31.2326 15.0467 30.5459 15.2 29.8392 15.2C29.1326 15.2 28.5059 15.06 27.9592 14.78C27.4126 14.4867 26.9792 14.0933 26.6592 13.6C26.3526 13.0933 26.1992 12.5267 26.1992 11.9ZM32.7192 12.44C33.0526 12.12 33.2192 11.8133 33.2192 11.52V10.46C32.5259 10.18 31.8259 10.04 31.1192 10.04C30.4126 10.04 29.8392 10.1933 29.3992 10.5C28.9592 10.7933 28.7392 11.1867 28.7392 11.68C28.7392 12.08 28.8992 12.44 29.2192 12.76C29.5392 13.08 29.9992 13.24 30.5992 13.24C30.9992 13.24 31.3859 13.1667 31.7592 13.02C32.1459 12.8733 32.4659 12.68 32.7192 12.44ZM38.3836 0.4H41.0636V11.64C41.0636 12.1333 41.1436 12.46 41.3036 12.62C41.4636 12.78 41.6836 12.86 41.9636 12.86C42.1769 12.86 42.3969 12.8333 42.6236 12.78C42.8503 12.7267 43.0503 12.66 43.2236 12.58L43.5836 14.62C43.2236 14.7933 42.8036 14.9267 42.3236 15.02C41.8436 15.1133 41.4103 15.16 41.0236 15.16C40.1836 15.16 39.5303 14.94 39.0636 14.5C38.6103 14.0467 38.3836 13.4067 38.3836 12.58V0.4ZM50.9141 14.46C50.5541 14.62 50.1074 14.78 49.5741 14.94C49.0541 15.1 48.5141 15.18 47.9541 15.18C47.4607 15.18 47.0074 15.0933 46.5941 14.92C46.1807 14.7467 45.8474 14.4733 45.5941 14.1C45.3541 13.7133 45.2341 13.2133 45.2341 12.6V6.58H43.8541V4.52H45.2341V1.12H47.9141V4.52H50.1141V6.58H47.9141V11.7C47.9141 12.06 48.0074 12.32 48.1941 12.48C48.3941 12.64 48.6341 12.72 48.9141 12.72C49.1941 12.72 49.4674 12.6733 49.7341 12.58C50.0007 12.4867 50.2141 12.4067 50.3741 12.34L50.9141 14.46ZM62.0498 15H59.3698V9.12C59.3698 8.30667 59.2098 7.7 58.8898 7.3C58.5832 6.9 58.1565 6.7 57.6098 6.7C57.2765 6.7 56.9298 6.79333 56.5698 6.98C56.2232 7.16667 55.9032 7.42667 55.6098 7.76C55.3298 8.08 55.1232 8.45333 54.9898 8.88V15H52.3098V0.4H54.9898V6.46C55.3765 5.79333 55.9032 5.27333 56.5698 4.9C57.2365 4.52667 57.9632 4.34 58.7498 4.34C59.6432 4.34 60.3298 4.54 60.8098 4.94C61.2898 5.34 61.6165 5.85333 61.7898 6.48C61.9632 7.10667 62.0498 7.76667 62.0498 8.46V15ZM70.6016 14.46C70.2416 14.62 69.7949 14.78 69.2616 14.94C68.7416 15.1 68.2016 15.18 67.6416 15.18C67.1482 15.18 66.6949 15.0933 66.2816 14.92C65.8682 14.7467 65.5349 14.4733 65.2816 14.1C65.0416 13.7133 64.9216 13.2133 64.9216 12.6V6.58H63.5416V4.52H64.9216V1.12H67.6016V4.52H69.8016V6.58H67.6016V11.7C67.6016 12.06 67.6949 12.32 67.8816 12.48C68.0816 12.64 68.3216 12.72 68.6016 12.72C68.8816 12.72 69.1549 12.6733 69.4216 12.58C69.6882 12.4867 69.9016 12.4067 70.0616 12.34L70.6016 14.46ZM76.7206 15.2C75.5873 15.2 74.6073 14.9533 73.7806 14.46C72.9673 13.9667 72.334 13.3133 71.8806 12.5C71.4273 11.6733 71.2006 10.78 71.2006 9.82C71.2006 8.83333 71.4206 7.92667 71.8606 7.1C72.314 6.26 72.954 5.59333 73.7806 5.1C74.6073 4.59333 75.594 4.34 76.7406 4.34C77.8873 4.34 78.8673 4.59333 79.6806 5.1C80.494 5.59333 81.114 6.25333 81.5406 7.08C81.9806 7.89333 82.2006 8.77333 82.2006 9.72C82.2006 10.0667 82.1806 10.3667 82.1406 10.62H74.0406C74.1073 11.4333 74.4073 12.0733 74.9406 12.54C75.4873 13.0067 76.114 13.24 76.8206 13.24C77.354 13.24 77.854 13.1133 78.3206 12.86C78.8006 12.5933 79.1273 12.2467 79.3006 11.82L81.6006 12.46C81.214 13.26 80.594 13.92 79.7406 14.44C78.8873 14.9467 77.8806 15.2 76.7206 15.2ZM73.9806 8.92H79.4606C79.3806 8.13333 79.0806 7.5 78.5606 7.02C78.054 6.52667 77.434 6.28 76.7006 6.28C75.9806 6.28 75.3606 6.52667 74.8406 7.02C74.334 7.5 74.0473 8.13333 73.9806 8.92ZM87.6933 15.2C86.7999 15.2 85.9466 15.0533 85.1333 14.76C84.3199 14.4667 83.6199 14.0333 83.0333 13.46L83.9933 11.72C84.6199 12.2267 85.2333 12.6 85.8333 12.84C86.4333 13.08 87.0199 13.2 87.5933 13.2C88.1133 13.2 88.5266 13.1067 88.8333 12.92C89.1533 12.7333 89.3133 12.4533 89.3133 12.08C89.3133 11.6933 89.1199 11.4333 88.7333 11.3C88.3466 11.1533 87.8066 10.9733 87.1133 10.76C86.3399 10.52 85.6933 10.2733 85.1733 10.02C84.6533 9.76667 84.2599 9.46 83.9933 9.1C83.7399 8.74 83.6133 8.27333 83.6133 7.7C83.6133 6.67333 83.9999 5.85333 84.7733 5.24C85.5466 4.62667 86.5733 4.32 87.8533 4.32C88.5999 4.32 89.3066 4.44 89.9733 4.68C90.6399 4.90667 91.2466 5.28 91.7933 5.8L90.7133 7.5C89.6866 6.7 88.6933 6.3 87.7333 6.3C87.3066 6.3 86.9266 6.38 86.5933 6.54C86.2733 6.7 86.1133 6.98 86.1133 7.38C86.1133 7.75333 86.2666 8.02 86.5733 8.18C86.8933 8.34 87.3733 8.51333 88.0133 8.7C88.8399 8.95333 89.5399 9.2 90.1133 9.44C90.6999 9.68 91.1399 9.98667 91.4333 10.36C91.7399 10.7333 91.8933 11.24 91.8933 11.88C91.8933 12.92 91.5133 13.7333 90.7533 14.32C89.9933 14.9067 88.9733 15.2 87.6933 15.2ZM99.9375 14.46C99.5775 14.62 99.1308 14.78 98.5975 14.94C98.0775 15.1 97.5375 15.18 96.9775 15.18C96.4842 15.18 96.0308 15.0933 95.6175 14.92C95.2042 14.7467 94.8708 14.4733 94.6175 14.1C94.3775 13.7133 94.2575 13.2133 94.2575 12.6V6.58H92.8775V4.52H94.2575V1.12H96.9375V4.52H99.1375V6.58H96.9375V11.7C96.9375 12.06 97.0308 12.32 97.2175 12.48C97.4175 12.64 97.6575 12.72 97.9375 12.72C98.2175 12.72 98.4908 12.6733 98.7575 12.58C99.0242 12.4867 99.2375 12.4067 99.3975 12.34L99.9375 14.46Z"/>
</symbol><symbol viewBox="0 0 26 26" id="instagram" xmlns="http://www.w3.org/2000/svg">
<path d="M18.5341 1H7.46592C3.89455 1 1 3.89507 1 7.46592V18.5341C1 22.1055 3.89507 25 7.46643 25H18.5336C22.1049 25 25 22.1049 25 18.5336V7.46592C25 3.89455 22.1049 1 18.5336 1H18.5341Z" stroke-width="1.5" stroke-miterlimit="10"/>
<path d="M13.0002 18.7934C16.1997 18.7934 18.7935 16.1997 18.7935 13.0002C18.7935 9.80068 16.1997 7.20697 13.0002 7.20697C9.80074 7.20697 7.20703 9.80068 7.20703 13.0002C7.20703 16.1997 9.80074 18.7934 13.0002 18.7934Z" stroke-width="1.5" stroke-miterlimit="10"/>
<path d="M20.0342 7.20712C20.7197 7.20712 21.2755 6.65139 21.2755 5.96587C21.2755 5.28034 20.7197 4.72461 20.0342 4.72461C19.3487 4.72461 18.793 5.28034 18.793 5.96587C18.793 6.65139 19.3487 7.20712 20.0342 7.20712Z"/>
</symbol><symbol viewBox="0 0 21 21" id="instagram-" xmlns="http://www.w3.org/2000/svg">
<path fill-rule="evenodd" clip-rule="evenodd" d="M8.97447 5.03821C5.12925 5.03821 2.01209 8.15538 2.01209 12.0006C2.01209 15.8458 5.12925 18.963 8.97447 18.963C12.8197 18.963 15.9368 15.8458 15.9368 12.0006C15.9368 8.15538 12.8197 5.03821 8.97447 5.03821ZM0.488281 12.0006C0.488281 7.3138 4.28768 3.5144 8.97447 3.5144C13.6613 3.5144 17.4607 7.3138 17.4607 12.0006C17.4607 16.6874 13.6613 20.4868 8.97447 20.4868C4.28768 20.4868 0.488281 16.6874 0.488281 12.0006Z"/>
<path d="M18.3562 4.27584C19.2702 4.27584 20.0112 3.53486 20.0112 2.62083C20.0112 1.70679 19.2702 0.96582 18.3562 0.96582C17.4421 0.96582 16.7012 1.70679 16.7012 2.62083C16.7012 3.53486 17.4421 4.27584 18.3562 4.27584Z"/>
</symbol><symbol viewBox="0 0 33 42" id="profi" xmlns="http://www.w3.org/2000/svg">
<path d="M16.0933 18.7023C21.2496 18.7023 25.4445 14.5074 25.4445 9.35115C25.4445 4.19488 21.2496 0 16.0933 0C10.9371 0 6.74219 4.19488 6.74219 9.35115C6.74219 14.5074 10.9371 18.7023 16.0933 18.7023ZM16.0933 2.60962C19.8107 2.60962 22.8349 5.63383 22.8349 9.35115C22.8349 13.0685 19.8107 16.0927 16.0933 16.0927C12.376 16.0927 9.35181 13.0685 9.35181 9.35115C9.35181 5.63383 12.376 2.60962 16.0933 2.60962Z"/>
<path d="M16.0927 21.3115C7.21917 21.3115 0 28.5307 0 37.4042V38.709H14.7879V41.3186H17.3975V38.709H32.1854V37.4042C32.1854 28.5307 24.9662 21.3115 16.0927 21.3115ZM17.3975 36.0994V29.1404H14.7879V36.0994H2.67225C3.28926 29.7042 8.39264 24.6008 14.7879 23.9839V26.5308H17.3975V23.9839C23.7927 24.6008 28.8961 29.7042 29.5131 36.0994H17.3975Z"/>
</symbol><symbol viewBox="0 0 43 43" id="qualit" xmlns="http://www.w3.org/2000/svg">
<g clip-path="url(#gclip0_1_1390)">
<path d="M41.5498 15.3783L28.7296 13.5456L23.0553 1.91499C22.3504 0.558085 20.412 0.840039 19.945 1.91499L14.2707 13.5456L1.44172 15.3783C-0.00330268 15.4664 -0.461479 17.2198 0.525362 18.3036L9.777 27.3702L7.57423 40.1022C7.31871 41.6706 9.04568 42.5517 10.0501 41.9349L21.4957 35.8905L32.9413 41.8468C34.1396 42.4636 35.567 41.6001 35.4173 40.111L33.2145 27.3702L42.4661 18.3036C43.5851 17.1141 42.7833 15.5281 41.5498 15.3783ZM30.1923 25.4494C29.8222 25.9076 29.646 26.4539 29.7341 27.0089L31.4699 37.265L22.3152 32.4101C21.7248 32.1634 21.1697 32.1634 20.6675 32.4101L11.5128 37.265L13.2486 27.0089C13.3367 26.3657 13.1605 25.8195 12.7904 25.4494L5.38027 18.2155L15.6364 16.7529C16.1827 16.6647 16.6408 16.3828 16.9228 15.8365L21.5046 6.58486L26.0863 15.8365C26.3595 16.2947 26.8176 16.6647 27.3727 16.7529L37.6112 18.2155L30.1923 25.4494Z" stroke-width="0.8"/>
</g>
<defs>
<clipPath id="gclip0_1_1390">
<rect width="43" height="43"/>
</clipPath>
</defs>
</symbol><symbol viewBox="0 0 24 20" id="twitter" xmlns="http://www.w3.org/2000/svg">
<path d="M23 1.01006C22.0424 1.68553 20.9821 2.20217 19.86 2.54006C19.2577 1.84757 18.4573 1.35675 17.567 1.13398C16.6767 0.911216 15.7395 0.967251 14.8821 1.29451C14.0247 1.62177 13.2884 2.20446 12.773 2.96377C12.2575 3.72309 11.9877 4.62239 12 5.54006V6.54006C10.2426 6.58562 8.50127 6.19587 6.93101 5.4055C5.36074 4.61513 4.01032 3.44869 3 2.01006C3 2.01006 -1 11.0101 8 15.0101C5.94053 16.408 3.48716 17.109 1 17.0101C10 22.0101 21 17.0101 21 5.51006C20.9991 5.23151 20.9723 4.95365 20.92 4.68006C21.9406 3.67355 22.6608 2.40277 23 1.01006Z" stroke-width="1.5" stroke-linecap="round" stroke-linejoin="round"/>
</symbol><symbol viewBox="0 0 45 45" id="ver" xmlns="http://www.w3.org/2000/svg">
<g clip-path="url(#iclip0_1_1378)">
<path d="M31.9313 18.3376C32.1797 18.071 32.315 17.7184 32.3085 17.3541C32.3021 16.9898 32.1545 16.6422 31.8969 16.3845C31.6392 16.1269 31.2916 15.9793 30.9273 15.9729C30.563 15.9664 30.2104 16.1017 29.9438 16.3501L19.6876 26.6063L15.0563 21.9751C14.7897 21.7267 14.4372 21.5914 14.0728 21.5979C13.7085 21.6043 13.3609 21.7519 13.1033 22.0095C12.8456 22.2672 12.6981 22.6148 12.6916 22.9791C12.6852 23.3434 12.8204 23.696 13.0688 23.9626L18.6938 29.5876C18.9575 29.8509 19.3149 29.9988 19.6876 29.9988C20.0602 29.9988 20.4177 29.8509 20.6813 29.5876L31.9313 18.3376Z"/>
<path fill-rule="evenodd" clip-rule="evenodd" d="M26.5045 2.25C25.3431 1.39761 23.9401 0.937988 22.4995 0.937988C21.0589 0.937988 19.6559 1.39761 18.4945 2.25L15.9164 4.14375C15.4022 4.52058 14.8047 4.76759 14.1745 4.86375L11.0133 5.34938C9.58945 5.56769 8.2724 6.23453 7.25368 7.25292C6.23495 8.27131 5.56767 9.58813 5.34889 11.0119L4.86327 14.175C4.7671 14.8052 4.52009 15.4027 4.14327 15.9169L2.24952 18.495C1.39713 19.6564 0.9375 21.0594 0.9375 22.5C0.9375 23.9406 1.39713 25.3436 2.24952 26.505L4.14327 29.0831C4.51827 29.5969 4.76764 30.195 4.86327 30.825L5.34889 33.9863C5.5672 35.4101 6.23404 36.7271 7.25243 37.7458C8.27082 38.7646 9.58764 39.4318 11.0114 39.6506L14.1745 40.1363C14.8045 40.2319 15.4026 40.4794 15.9164 40.8563L18.4945 42.75C19.6559 43.6024 21.0589 44.062 22.4995 44.062C23.9401 44.062 25.3431 43.6024 26.5045 42.75L29.0826 40.8563C29.5968 40.4794 30.1944 40.2324 30.8245 40.1363L33.9858 39.6506C35.4096 39.4323 36.7266 38.7655 37.7454 37.7471C38.7641 36.7287 39.4314 35.4119 39.6501 33.9881L40.1358 30.825C40.2319 30.1949 40.4789 29.5973 40.8558 29.0831L42.7495 26.505C43.6019 25.3436 44.0615 23.9406 44.0615 22.5C44.0615 21.0594 43.6019 19.6564 42.7495 18.495L40.8558 15.9169C40.4789 15.4027 40.2319 14.8052 40.1358 14.175L39.6501 11.0138C39.4318 9.58994 38.765 8.27289 37.7466 7.25416C36.7282 6.23544 35.4114 5.56816 33.9876 5.34938L30.8245 4.86375C30.1944 4.76759 29.5968 4.52058 29.0826 4.14375L26.5045 2.25ZM20.1595 4.51688C20.8382 4.01907 21.6579 3.75066 22.4995 3.75066C23.3412 3.75066 24.1609 4.01907 24.8395 4.51688L27.4195 6.41063C28.2987 7.0559 29.3209 7.47916 30.3989 7.64438L33.5601 8.12813C34.3923 8.25609 35.162 8.6462 35.7572 9.24172C36.3524 9.83725 36.742 10.6071 36.8695 11.4394L37.357 14.6006C37.5214 15.6791 37.944 16.7019 38.5889 17.5819L40.4826 20.16C40.9804 20.8386 41.2489 21.6584 41.2489 22.5C41.2489 23.3416 40.9804 24.1614 40.4826 24.84L38.5889 27.42C37.9436 28.2992 37.5204 29.3214 37.3551 30.3994L36.8714 33.5606C36.7434 34.3928 36.3533 35.1625 35.7578 35.7577C35.1623 36.3528 34.3924 36.7425 33.5601 36.87L30.3989 37.3575C29.3204 37.5219 28.2976 37.9445 27.4176 38.5894L24.8395 40.4831C24.1609 40.9809 23.3412 41.2493 22.4995 41.2493C21.6579 41.2493 20.8382 40.9809 20.1595 40.4831L17.5795 38.5894C16.7003 37.9441 15.6782 37.5209 14.6001 37.3556L11.4389 36.8719C10.6064 36.7443 9.83629 36.3543 9.24074 35.7588C8.64518 35.1632 8.25523 34.3932 8.12764 33.5606L7.64389 30.3994C7.47896 29.3207 7.05569 28.2979 6.41014 27.4181L4.51639 24.84C4.01858 24.1614 3.75017 23.3416 3.75017 22.5C3.75017 21.6584 4.01858 20.8386 4.51639 20.16L6.41014 17.58C7.05541 16.7008 7.47867 15.6786 7.64389 14.6006L8.12764 11.4394C8.25523 10.6069 8.64518 9.83678 9.24074 9.24123C9.83629 8.64567 10.6064 8.25572 11.4389 8.12813L14.6001 7.64438C15.6788 7.47945 16.7016 7.05617 17.5814 6.41063L20.1595 4.51688Z"/>
</g>
<defs>
<clipPath id="iclip0_1_1378">
<rect width="45" height="45"/>
</clipPath>
</defs>
</symbol><symbol viewBox="0 0 26 26" id="whatsapp" xmlns="http://www.w3.org/2000/svg">
<path d="M13.0052 1C6.38605 1 1.00295 6.38073 1 12.9948C0.999265 15.2614 1.63383 17.4687 2.83486 19.3786L3.12012 19.8324L1.90767 24.2591L6.44936 23.068L6.88774 23.3279C8.72996 24.421 10.842 24.9993 12.9952 25H13C19.6139 25 24.9971 19.6189 25 13.0044C25.0011 9.79895 23.7541 6.78523 21.4886 4.51796C19.2231 2.25068 16.21 1.0011 13.0052 1V1ZM20.0634 18.1522C19.7627 18.9943 18.3216 19.7632 17.6285 19.867C17.0069 19.9597 16.2207 19.9984 15.3564 19.7242C14.8323 19.5578 14.1605 19.3359 13.2996 18.9645C9.68106 17.4024 7.31765 13.7601 7.13729 13.5193C6.95694 13.2786 5.66425 11.5638 5.66425 9.78864C5.66425 8.01383 6.59622 7.14115 6.92675 6.78045C7.25765 6.41938 7.64855 6.3292 7.8889 6.3292C8.12926 6.3292 8.36998 6.33141 8.58015 6.34172C8.80173 6.35276 9.09914 6.25743 9.39176 6.9608C9.69247 7.68294 10.4139 9.45775 10.5041 9.6381C10.5943 9.81882 10.6543 10.0294 10.5343 10.2701C10.4139 10.5108 10.0142 11.0301 9.63248 11.5035C9.47236 11.7018 9.26367 11.8785 9.4742 12.2396C9.68438 12.6003 10.4087 13.7814 11.481 14.7376C12.859 15.9662 14.0214 16.3468 14.3821 16.5275C14.7425 16.7079 14.953 16.6777 15.1635 16.4374C15.3737 16.1966 16.0653 15.3843 16.3057 15.0232C16.546 14.6622 16.7868 14.7225 17.1173 14.8429C17.4482 14.9629 19.2216 15.8356 19.5823 16.0159C19.943 16.1966 20.1834 16.2868 20.2735 16.4374C20.3641 16.5879 20.3641 17.3097 20.0634 18.1522V18.1522Z" stroke-width="1.5" stroke-linejoin="round"/>
</symbol><symbol viewBox="0 0 29 30" id="x" xmlns="http://www.w3.org/2000/svg">
<path d="M5.10457 2.95511L14.5006 12.3511L23.8579 2.99377C24.1893 2.64113 24.65 2.43871 25.1339 2.43311C26.2017 2.43311 27.0672 3.29866 27.0672 4.36644C27.0763 4.84552 26.8874 5.3072 26.5452 5.64244L17.0912 14.9998L26.5452 24.4538C26.8638 24.7654 27.0508 25.1877 27.0672 25.6331C27.0672 26.7009 26.2017 27.5664 25.1339 27.5664C24.6357 27.5871 24.1518 27.3977 23.7999 27.0444L14.5006 17.6484L5.12391 27.0251C4.79389 27.366 4.34149 27.5608 3.86724 27.5664C2.79946 27.5664 1.93391 26.7009 1.93391 25.6331C1.92482 25.154 2.11371 24.6923 2.45591 24.3571L11.9099 14.9998L2.45591 5.54577C2.13729 5.23412 1.95034 4.81188 1.93391 4.36644C1.93391 3.29866 2.79946 2.43311 3.86724 2.43311C4.33201 2.43871 4.7761 2.62605 5.10457 2.95511Z"/>
</symbol></svg>