<svg width="356" height="346" viewBox="0 0 356 346" fill="none" xmlns="http://www.w3.org/2000/svg">
<path d="M102.236 113.064C102.236 113.064 128.091 69.3685 206.325 76.8287C274.02 83.2627 311.637 210.64 233.363 257.77C155.05 304.86 39.436 227.258 102.236 113.064Z" fill="#EFF4FF"/>
<path d="M174.944 0.093487C174.944 0.093487 148.34 -2.27489 150.432 16.8297C152.247 33.487 172.22 10.5536 167.286 89.3798L182.404 87.2878C182.404 87.2878 172.063 30.0529 180.194 24.3689C190.259 17.3034 193.614 5.02753 174.944 0.093487Z" fill="#EFF4FF"/>
<path d="M303.862 52.8648C303.862 52.8648 287.086 32.1023 274.81 46.8649C264.113 59.7329 294.467 58.1541 234.391 109.429L246.39 118.862C246.39 118.862 280.336 71.6536 290.086 73.5088C302.125 75.8376 313.296 69.7194 303.862 52.8648Z" fill="#EFF4FF"/>
<path d="M354.741 175.194C354.741 175.194 359.477 148.906 340.254 149.3C323.518 149.616 344.557 171.563 266.48 159.642L267.191 174.878C267.191 174.878 325.097 169.668 330.07 178.312C336.228 188.891 348.149 193.351 354.741 175.194Z" fill="#EFF4FF"/>
<path d="M313.453 292.822C313.453 292.822 333.86 275.612 318.861 263.652C305.756 253.231 307.966 283.506 255.468 224.535L246.311 236.732C246.311 236.732 294.23 269.691 292.533 279.48C290.441 291.559 296.796 302.611 313.453 292.822Z" fill="#EFF4FF"/>
<path d="M181.025 345.476C181.025 345.476 207.471 349.108 206.287 329.924C205.261 313.227 184.222 335.135 192.867 256.664L177.67 258.006C177.67 258.006 185.288 315.675 176.88 320.964C166.578 327.556 162.631 339.674 181.025 345.476Z" fill="#EFF4FF"/>
<path d="M238.296 35.8953C238.296 35.8953 217.652 24.1326 212.244 40.3557C207.547 54.5263 232.217 43.3556 199.061 105.367L212.086 109.274C212.086 109.274 224.915 59.105 233.599 57.4867C244.296 55.5131 251.559 46.8291 238.296 35.8953Z" fill="#EFF4FF"/>
<path d="M247.334 307.033C247.334 307.033 269.676 298.941 260.834 284.337C253.097 271.587 245.598 297.56 219.98 232.115L208.533 239.457C208.533 239.457 238.374 281.771 233.953 289.429C228.506 298.862 230.401 310.033 247.334 307.033Z" fill="#EFF4FF"/>
<path d="M312.466 125.575C312.466 125.575 303.585 103.51 289.296 112.905C276.823 121.076 303.072 127.667 238.574 155.614L246.35 166.785C246.35 166.785 287.559 135.444 295.414 139.588C304.967 144.641 316.098 142.351 312.466 125.575Z" fill="#EFF4FF"/>
<path d="M311.241 227.89C311.241 227.89 324.622 208.232 308.912 201.561C295.176 195.72 304.334 221.219 245.204 183.128L240.23 195.799C240.23 195.799 289.216 212.653 290.123 221.456C291.229 232.271 299.321 240.244 311.241 227.89Z" fill="#EFF4FF"/>
<path d="M51.3576 293.295C51.3576 293.295 68.1334 314.057 80.4092 299.294C91.1062 286.426 60.752 288.005 120.829 236.731L108.829 227.297C108.829 227.297 74.8831 274.506 65.1334 272.651C53.0944 270.322 41.9632 276.44 51.3576 293.295Z" fill="#EFF4FF"/>
<path d="M0.516209 170.967C0.516209 170.967 -4.22046 197.256 15.0026 196.861C31.7388 196.545 10.7 174.599 88.7763 186.52L88.0658 171.283C88.0658 171.283 30.1599 176.494 25.1864 167.849C19.0287 157.271 7.06861 152.81 0.516209 170.967Z" fill="#EFF4FF"/>
<path d="M41.8051 53.3398C41.8051 53.3398 21.3979 70.5498 36.3974 82.5099C49.5022 92.9306 47.2917 62.6553 99.7899 121.627L108.948 109.43C108.948 109.43 61.0281 76.4706 62.7254 66.6815C64.778 54.603 58.4624 43.5507 41.8051 53.3398Z" fill="#EFF4FF"/>
<path d="M119.686 313.623C119.686 313.623 140.33 325.385 145.737 309.162C150.435 294.992 125.764 306.162 158.921 244.151L145.895 240.244C145.895 240.244 133.067 290.413 124.383 292.031C113.686 294.005 106.384 302.728 119.686 313.623Z" fill="#EFF4FF"/>
<path d="M116.879 36.2515C116.879 36.2515 93.8662 42.2907 101.366 57.6454C107.918 71.066 117.747 45.8432 137.365 113.341L149.404 107.065C149.404 107.065 123.51 62.2242 128.602 55.0008C134.878 46.0801 134.01 34.791 116.879 36.2515Z" fill="#EFF4FF"/>
<path d="M42.7898 220.625C42.7898 220.625 51.6711 242.69 65.96 233.296C78.4333 225.125 52.1842 218.533 116.682 190.587L108.906 179.416C108.906 179.416 67.6968 210.757 59.8418 206.612C50.2501 201.521 39.1583 203.81 42.7898 220.625Z" fill="#EFF4FF"/>
<path d="M43.9769 118.311C43.9769 118.311 30.5958 137.968 46.3058 144.639C60.0421 150.48 50.8846 124.981 110.014 163.072L114.988 150.402C114.988 150.402 66.0024 133.547 65.0946 124.745C64.0288 113.89 55.937 105.916 43.9769 118.311Z" fill="#EFF4FF"/>
<path d="M188.76 99.7995C188.76 99.7995 213.036 96.4049 217.062 123.917C221.088 151.429 191.247 149.456 178.695 129.325C166.182 109.194 179.603 99.1285 188.76 99.7995Z" fill="#EFF4FF"/>
<path d="M125.762 176.454C125.762 176.454 150.038 173.059 154.064 200.571C158.09 228.084 128.249 226.11 115.697 205.979C103.184 185.848 116.605 175.783 125.762 176.454Z" fill="#EFF4FF"/>
<path d="M164.012 162.801C164.012 162.801 178.064 160.827 180.393 176.774C182.722 192.721 165.433 191.576 158.17 179.892C150.907 168.208 158.723 162.406 164.012 162.801Z" fill="#EFF4FF"/>
<path d="M230.917 107.538C230.917 107.538 244.969 105.565 247.298 121.511C249.626 137.458 232.338 136.313 225.075 124.63C217.812 112.946 225.627 107.143 230.917 107.538Z" fill="#EFF4FF"/>
<path d="M228.39 241.782C228.39 241.782 228.272 255.992 212.167 255.953C196.062 255.913 199.733 238.979 212.325 233.532C224.917 228.085 229.574 236.572 228.39 241.782Z" fill="#EFF4FF"/>
<path d="M121.776 145.628C121.776 145.628 115.065 133.115 129.197 125.418C143.328 117.682 148.262 134.3 139.854 145.155C131.446 156.009 123.276 150.76 121.776 145.628Z" fill="#EFF4FF"/>
<path d="M159.077 235.467C159.077 235.467 152.366 222.954 166.497 215.257C180.628 207.521 185.562 224.139 177.155 234.993C168.708 245.848 160.537 240.559 159.077 235.467Z" fill="#EFF4FF"/>
<path d="M251.205 147.247C251.205 147.247 275.046 167.851 251.876 195.087C228.706 222.283 205.259 191.771 214.101 162.562C222.943 133.352 244.06 137.852 251.205 147.247Z" fill="#EFF4FF"/>
</svg>
