<svg width="415" height="404" viewBox="0 0 415 404" fill="none" xmlns="http://www.w3.org/2000/svg">
<path d="M119.429 132.077C119.429 132.077 149.631 81.0334 241.021 89.7483C320.101 97.2642 364.044 246.062 272.607 301.118C181.124 356.127 46.0675 265.474 119.429 132.077Z" fill="#EFF4FF"/>
<path d="M204.365 0.109208C204.365 0.109208 173.287 -2.65745 175.731 19.6599C177.852 39.1184 201.184 12.3284 195.42 104.41L213.08 101.967C213.08 101.967 200.999 35.1068 210.498 28.467C222.256 20.2132 226.175 5.87299 204.365 0.109208Z" fill="#EFF4FF"/>
<path d="M354.961 61.7557C354.961 61.7557 335.364 37.5017 321.023 54.747C308.528 69.7789 343.986 67.9345 273.807 127.832L287.824 138.852C287.824 138.852 327.479 83.7042 338.868 85.8713C352.932 88.5919 365.981 81.4448 354.961 61.7557Z" fill="#EFF4FF"/>
<path d="M414.397 204.655C414.397 204.655 419.931 173.946 397.475 174.407C377.924 174.776 402.501 200.413 311.295 186.488L312.125 204.286C312.125 204.286 379.769 198.2 385.578 208.298C392.772 220.656 406.697 225.866 414.397 204.655Z" fill="#EFF4FF"/>
<path d="M366.164 342.063C366.164 342.063 390.003 321.959 372.481 307.988C357.172 295.815 359.755 331.181 298.428 262.292L287.73 276.541C287.73 276.541 343.708 315.043 341.726 326.478C339.282 340.588 346.705 353.498 366.164 342.063Z" fill="#EFF4FF"/>
<path d="M211.468 403.573C211.468 403.573 242.362 407.815 240.979 385.406C239.78 365.901 215.203 391.492 225.301 299.825L207.549 301.393C207.549 301.393 216.448 368.76 206.627 374.939C194.592 382.639 189.981 396.795 211.468 403.573Z" fill="#EFF4FF"/>
<path d="M278.369 41.9315C278.369 41.9315 254.253 28.1907 247.936 47.142C242.449 63.6955 271.268 50.6464 232.535 123.086L247.752 127.65C247.752 127.65 262.737 69.0443 272.882 67.1538C285.377 64.8483 293.862 54.704 278.369 41.9315Z" fill="#EFF4FF"/>
<path d="M288.928 358.664C288.928 358.664 315.026 349.212 304.698 332.151C295.66 317.257 286.899 347.598 256.974 271.147L243.602 279.723C243.602 279.723 278.461 329.154 273.297 338.099C266.933 349.119 269.147 362.169 288.928 358.664Z" fill="#EFF4FF"/>
<path d="M365.014 146.693C365.014 146.693 354.639 120.917 337.947 131.892C323.376 141.436 354.039 149.137 278.695 181.783L287.779 194.832C287.779 194.832 335.918 158.221 345.094 163.062C356.253 168.964 369.256 166.29 365.014 146.693Z" fill="#EFF4FF"/>
<path d="M363.581 266.212C363.581 266.212 379.213 243.249 360.861 235.457C344.814 228.632 355.512 258.42 286.439 213.923L280.629 228.725C280.629 228.725 337.852 248.414 338.912 258.696C340.203 271.331 349.656 280.645 363.581 266.212Z" fill="#EFF4FF"/>
<path d="M59.9947 342.615C59.9947 342.615 79.5916 366.869 93.9319 349.624C106.428 334.592 70.969 336.437 141.149 276.539L127.131 265.519C127.131 265.519 87.4764 320.667 76.0872 318.5C62.0236 315.779 49.0205 322.926 59.9947 342.615Z" fill="#EFF4FF"/>
<path d="M0.603018 199.719C0.603018 199.719 -4.9302 230.428 17.5255 229.967C37.0762 229.598 12.4994 203.961 103.705 217.886L102.875 200.088C102.875 200.088 35.2318 206.174 29.4219 196.076C22.2287 183.719 8.25731 178.508 0.603018 199.719Z" fill="#EFF4FF"/>
<path d="M48.8336 62.3098C48.8336 62.3098 24.9946 82.4138 42.5165 96.3852C57.8251 108.558 55.2429 73.1918 116.569 142.08L127.267 127.832C127.267 127.832 71.2893 89.3304 73.272 77.895C75.6697 63.7853 68.2921 50.8744 48.8336 62.3098Z" fill="#EFF4FF"/>
<path d="M139.812 366.363C139.812 366.363 163.927 380.104 170.245 361.152C175.732 344.599 146.913 357.648 185.645 285.209L170.429 280.644C170.429 280.644 155.443 339.25 145.299 341.141C132.803 343.446 124.273 353.637 139.812 366.363Z" fill="#EFF4FF"/>
<path d="M136.535 42.3483C136.535 42.3483 109.653 49.4032 118.414 67.34C126.068 83.0175 137.549 53.5531 160.466 132.402L174.53 125.07C174.53 125.07 144.281 72.6888 150.23 64.2507C157.561 53.8298 156.547 40.6422 136.535 42.3483Z" fill="#EFF4FF"/>
<path d="M49.9847 257.727C49.9847 257.727 60.3594 283.503 77.0513 272.528C91.6222 262.983 60.9589 255.283 136.303 222.637L127.219 209.588C127.219 209.588 79.0802 246.199 69.9043 241.358C58.6995 235.41 45.7425 238.084 49.9847 257.727Z" fill="#EFF4FF"/>
<path d="M51.3723 138.207C51.3723 138.207 35.7409 161.17 54.0928 168.962C70.1392 175.787 59.4416 146 128.515 190.496L134.325 175.695C134.325 175.695 77.1018 156.005 76.0412 145.723C74.7963 133.043 65.3437 123.728 51.3723 138.207Z" fill="#EFF4FF"/>
<path d="M220.504 116.583C220.504 116.583 248.862 112.617 253.565 144.756C258.269 176.895 223.409 174.589 208.746 151.073C194.129 127.557 209.807 115.799 220.504 116.583Z" fill="#EFF4FF"/>
<path d="M146.911 206.127C146.911 206.127 175.268 202.162 179.972 234.3C184.675 266.439 149.816 264.134 135.153 240.617C120.536 217.101 136.213 205.343 146.911 206.127Z" fill="#EFF4FF"/>
<path d="M191.593 190.178C191.593 190.178 208.009 187.872 210.729 206.501C213.45 225.129 193.253 223.792 184.769 210.143C176.285 196.495 185.414 189.717 191.593 190.178Z" fill="#EFF4FF"/>
<path d="M269.748 125.623C269.748 125.623 286.163 123.317 288.883 141.945C291.604 160.574 271.408 159.237 262.923 145.588C254.439 131.94 263.569 125.161 269.748 125.623Z" fill="#EFF4FF"/>
<path d="M266.798 282.442C266.798 282.442 266.66 299.042 247.847 298.996C229.034 298.95 233.322 279.168 248.031 272.805C262.74 266.442 268.181 276.356 266.798 282.442Z" fill="#EFF4FF"/>
<path d="M142.254 170.117C142.254 170.117 134.416 155.5 150.923 146.509C167.431 137.471 173.194 156.884 163.373 169.564C153.551 182.244 144.007 176.112 142.254 170.117Z" fill="#EFF4FF"/>
<path d="M185.827 275.064C185.827 275.064 177.988 260.448 194.495 251.456C211.003 242.418 216.767 261.831 206.945 274.511C197.078 287.191 187.533 281.013 185.827 275.064Z" fill="#EFF4FF"/>
<path d="M293.449 172.008C293.449 172.008 321.3 196.078 294.233 227.894C267.167 259.664 239.777 224.021 250.106 189.899C260.434 155.777 285.103 161.034 293.449 172.008Z" fill="#EFF4FF"/>
</svg>
