<svg width="80" height="89" viewBox="0 0 80 89" fill="none" xmlns="http://www.w3.org/2000/svg">
<g clip-path="url(#clip0_1_1667)">
<path d="M78.4635 71.7846C77.1568 70.5026 75.295 70.1743 73.7015 70.7541L67.7409 65.8866C65.6915 64.2137 65.087 61.3083 66.3664 58.9918C66.683 58.4185 66.9787 57.8309 67.251 57.2316C67.8569 55.9001 69.3343 55.2043 70.7349 55.6213L71.1219 55.7372C71.445 57.0166 72.5133 58.0563 73.9504 58.2374C75.4891 58.4315 76.9926 57.5013 77.5046 56.0382C78.173 54.1256 77.0239 52.1113 75.1047 51.671C73.854 51.383 72.6071 51.8416 71.8254 52.751L71.7472 52.7367C70.2229 52.4696 69.1975 51.056 69.3669 49.5186C69.4685 48.5962 69.5206 47.6581 69.5206 46.7083C69.5206 41.8187 68.1409 37.2508 65.7514 33.3722C64.9554 32.081 65.2524 30.4016 66.4667 29.4935L69.8894 26.9347C71.3394 27.6278 72.9798 27.5405 74.108 26.5569C75.7106 25.1589 75.6689 22.4867 74.0129 20.5884C72.357 18.6901 69.7161 18.2836 68.1135 19.6816C66.9983 20.6549 66.6817 22.2444 67.1494 23.7622L64.0551 26.8174C62.9907 27.8688 61.3139 27.9223 60.1543 26.9764C56.7278 24.1778 52.5586 22.2548 47.9868 21.5473C46.4911 21.3154 45.4098 20.0008 45.5049 18.4908L46.1328 8.62026C47.7575 7.78903 48.8207 6.01582 48.5901 4.01852C48.349 1.93784 46.6644 0.261051 44.5824 0.02914C41.8308 -0.277034 39.4999 1.87009 39.4999 4.56052C39.4999 6.31418 40.4901 7.83333 41.9415 8.59681L42.3467 16.3358C42.4861 18.9911 40.6842 21.3284 38.098 21.9499C36.9567 22.2235 35.8467 22.574 34.7718 22.9961C32.2247 23.9954 29.3297 23.0222 27.9461 20.6614L25.8081 17.0107C26.5598 15.6505 26.5194 13.9177 25.5345 12.5627C24.2811 10.8377 21.8461 10.3479 20.0259 11.4579C17.9896 12.6982 17.4215 15.3704 18.74 17.3247C19.6325 18.6471 21.1529 19.2895 22.6356 19.1266L25.3612 22.7447C26.9442 24.8462 26.8334 27.7776 25.0798 29.7385C24.2798 30.6335 23.5411 31.5859 22.8714 32.5878C21.3744 34.8301 18.482 35.6704 16.0196 34.5708L9.08836 31.4765C8.876 29.6642 7.58485 28.0486 5.63316 27.5679C3.59938 27.0676 1.44052 28.0617 0.497246 29.9313C-0.7496 32.4041 0.44904 35.3369 2.97009 36.2763C4.61301 36.8886 6.38361 36.4899 7.6044 35.3968L14.95 37.7016C17.4762 38.495 19.1061 40.9705 18.7856 43.5984C18.6618 44.6172 18.598 45.6556 18.598 46.707C18.598 48.7577 18.8403 50.7511 19.2989 52.6624C19.923 55.263 18.5303 57.9286 16.0691 58.9735L9.08967 61.9389C7.61743 60.8601 5.55629 60.705 3.87428 61.8073C2.12323 62.9551 1.38059 65.213 2.10629 67.1764C3.06781 69.7743 6.03183 70.8935 8.43563 69.687C10.003 68.9001 10.9163 67.334 10.9476 65.695L17.5831 61.918C19.9074 60.5956 22.8688 61.0764 24.5938 63.1206C28.251 67.4539 33.3295 70.5482 39.1104 71.6869C41.7344 72.2042 43.6274 74.4985 43.5988 77.172L43.5571 81.1874C42.2307 81.9574 41.3839 83.444 41.5285 85.0908C41.7122 87.1885 43.5245 88.8392 45.6299 88.8249C47.9829 88.8092 49.8213 86.8354 49.6988 84.5124C49.6154 82.9398 48.6552 81.6239 47.3172 81.0077L46.908 77.1355C46.6266 74.4686 48.2917 71.9592 50.8753 71.244C53.6269 70.4818 56.191 69.2688 58.4827 67.6897C60.7028 66.1602 63.7033 66.4598 65.5795 68.3959L70.8639 73.8432C70.4314 75.4431 70.8847 77.2228 72.1967 78.4136C74.1146 80.1543 77.1112 79.9575 78.7801 77.9394C80.2732 76.1375 80.1312 73.4223 78.4635 71.7846Z" fill="#59B4FF"/>
<path d="M43.3917 5.56374C44.4085 5.56374 45.2327 4.73952 45.2327 3.72279C45.2327 2.70606 44.4085 1.88184 43.3917 1.88184C42.375 1.88184 41.5508 2.70606 41.5508 3.72279C41.5508 4.73952 42.375 5.56374 43.3917 5.56374Z" fill="#3796E4"/>
<path d="M70.4312 23.921C71.2141 23.921 71.8487 23.2863 71.8487 22.5035C71.8487 21.7206 71.2141 21.0859 70.4312 21.0859C69.6483 21.0859 69.0137 21.7206 69.0137 22.5035C69.0137 23.2863 69.6483 23.921 70.4312 23.921Z" fill="#3796E4"/>
<path d="M75.1814 56.9057C76.1153 56.9057 76.8725 56.1485 76.8725 55.2146C76.8725 54.2806 76.1153 53.5234 75.1814 53.5234C74.2474 53.5234 73.4902 54.2806 73.4902 55.2146C73.4902 56.1485 74.2474 56.9057 75.1814 56.9057Z" fill="#3796E4"/>
<path d="M74.8267 76.7498C75.5649 76.0116 75.5649 74.8146 74.8267 74.0763C74.0884 73.3381 72.8914 73.3381 72.1532 74.0763C71.4149 74.8146 71.4149 76.0116 72.1532 76.7498C72.8914 77.4881 74.0884 77.4881 74.8267 76.7498Z" fill="#3796E4"/>
<path d="M46.7028 84.8146C46.8657 83.811 46.1841 82.8654 45.1805 82.7025C44.1769 82.5396 43.2312 83.2212 43.0684 84.2248C42.9055 85.2284 43.587 86.174 44.5906 86.3369C45.5943 86.4998 46.5399 85.8182 46.7028 84.8146Z" fill="#3796E4"/>
<path d="M5.13324 66.8573C6.12263 66.8573 6.92468 66.0552 6.92468 65.0659C6.92468 64.0765 6.12263 63.2744 5.13324 63.2744C4.14385 63.2744 3.3418 64.0765 3.3418 65.0659C3.3418 66.0552 4.14385 66.8573 5.13324 66.8573Z" fill="#3796E4"/>
<path d="M3.34223 33.8212C4.33161 33.8212 5.13367 33.0191 5.13367 32.0297C5.13367 31.0403 4.33161 30.2383 3.34223 30.2383C2.35284 30.2383 1.55078 31.0403 1.55078 32.0297C1.55078 33.0191 2.35284 33.8212 3.34223 33.8212Z" fill="#3796E4"/>
<path d="M23.0482 15.275C23.2597 14.3794 22.7051 13.4819 21.8095 13.2704C20.9138 13.0589 20.0163 13.6135 19.8048 14.5091C19.5933 15.4048 20.1479 16.3023 21.0436 16.5138C21.9392 16.7253 22.8367 16.1707 23.0482 15.275Z" fill="#3796E4"/>
<path d="M27.8689 54.6806C27.8689 40.336 39.497 28.7079 53.8416 28.7079C53.8455 28.7079 53.8481 28.7079 53.852 28.7079C54.1765 28.7079 54.3185 28.2949 54.0553 28.1047C50.3864 25.4442 45.8068 23.9641 40.8703 24.2273C30.3548 24.7902 21.8874 33.3604 21.4445 43.8811C21.1852 50.045 23.6424 55.6356 27.7139 59.5663C27.9471 59.7904 28.3301 59.5846 28.2741 59.2654C28.0083 57.7775 27.8689 56.2453 27.8689 54.6806Z" fill="#3796E4"/>
<path d="M63.3204 41.7183C63.3556 42.057 63.3829 42.3971 63.4025 42.7397C64.076 54.6336 54.956 64.9666 43.0725 65.8018C40.485 65.9842 37.9678 65.7054 35.6018 65.037C34.3758 64.6904 33.7218 66.4206 34.8709 66.9678C38.3874 68.6407 42.3976 69.3977 46.5668 68.9547C58.0359 67.7391 66.6779 57.6615 66.1163 46.1415C66.0355 44.4803 65.7724 42.8752 65.3502 41.343C65.0128 40.1249 63.1901 40.4597 63.3204 41.7183Z" fill="#3796E4"/>
<path d="M38.9608 36.2475C39.4469 34.1887 38.172 32.1257 36.1132 31.6395C34.0544 31.1534 31.9914 32.4283 31.5052 34.4871C31.0191 36.5459 32.294 38.6089 34.3528 39.0951C36.4116 39.5812 38.4746 38.3063 38.9608 36.2475Z" fill="#AEDBFF"/>
<path d="M29.5847 49.2944C30.2301 49.2944 30.7533 48.7712 30.7533 48.1257C30.7533 47.4803 30.2301 46.957 29.5847 46.957C28.9392 46.957 28.416 47.4803 28.416 48.1257C28.416 48.7712 28.9392 49.2944 29.5847 49.2944Z" fill="#AEDBFF"/>
<path d="M43.7027 50.0402C45.7084 49.2094 46.6609 46.91 45.8301 44.9043C44.9993 42.8986 42.6998 41.9462 40.6941 42.777C38.6884 43.6078 37.736 45.9072 38.5668 47.9129C39.3976 49.9186 41.697 50.871 43.7027 50.0402Z" fill="#AEDBFF"/>
<path d="M45.8804 31.4547C47.0737 30.9604 47.6403 29.5923 47.146 28.399C46.6517 27.2057 45.2837 26.639 44.0904 27.1333C42.8971 27.6276 42.3304 28.9957 42.8247 30.189C43.319 31.3823 44.6871 31.949 45.8804 31.4547Z" fill="#AEDBFF"/>
<path d="M55.4309 51.3335C57.1067 51.3335 58.4652 49.9749 58.4652 48.2991C58.4652 46.6232 57.1067 45.2647 55.4309 45.2647C53.755 45.2647 52.3965 46.6232 52.3965 48.2991C52.3965 49.9749 53.755 51.3335 55.4309 51.3335Z" fill="#AEDBFF"/>
<path d="M40.2323 60.1394C41.3174 60.1394 42.197 59.2598 42.197 58.1747C42.197 57.0896 41.3174 56.21 40.2323 56.21C39.1472 56.21 38.2676 57.0896 38.2676 58.1747C38.2676 59.2598 39.1472 60.1394 40.2323 60.1394Z" fill="#AEDBFF"/>
<path d="M27.3836 42.5364C27.8304 42.0897 27.8304 41.3654 27.3836 40.9187C26.9369 40.472 26.2126 40.472 25.7659 40.9187C25.3192 41.3654 25.3192 42.0897 25.7659 42.5364C26.2126 42.9831 26.9369 42.9831 27.3836 42.5364Z" fill="#AEDBFF"/>
<path d="M50.1583 38.4992C50.8455 38.4992 51.4025 37.9422 51.4025 37.255C51.4025 36.5678 50.8455 36.0107 50.1583 36.0107C49.4711 36.0107 48.9141 36.5678 48.9141 37.255C48.9141 37.9422 49.4711 38.4992 50.1583 38.4992Z" fill="#AEDBFF"/>
</g>
<defs>
<clipPath id="clip0_1_1667">
<rect width="79.8124" height="88.8244" fill="white"/>
</clipPath>
</defs>
</svg>
